<svg width="50" height="40" viewBox="0 0 50 40" fill="none" xmlns="http://www.w3.org/2000/svg">
<path d="M48.75 16.25H43.75V11.25C43.75 10.5625 43.1875 10 42.5 10H40C39.3125 10 38.75 10.5625 38.75 11.25V16.25H33.75C33.0625 16.25 32.5 16.8125 32.5 17.5V20C32.5 20.6875 33.0625 21.25 33.75 21.25H38.75V26.25C38.75 26.9375 39.3125 27.5 40 27.5H42.5C43.1875 27.5 43.75 26.9375 43.75 26.25V21.25H48.75C49.4375 21.25 50 20.6875 50 20V17.5C50 16.8125 49.4375 16.25 48.75 16.25ZM17.5 20C23.0234 20 27.5 15.5234 27.5 10C27.5 4.47656 23.0234 0 17.5 0C11.9766 0 7.5 4.47656 7.5 10C7.5 15.5234 11.9766 20 17.5 20ZM24.5 22.5H23.1953C21.4609 23.2969 19.5312 23.75 17.5 23.75C15.4688 23.75 13.5469 23.2969 11.8047 22.5H10.5C4.70312 22.5 0 27.2031 0 33V36.25C0 38.3203 1.67969 40 3.75 40H31.25C33.3203 40 35 38.3203 35 36.25V33C35 27.2031 30.2969 22.5 24.5 22.5Z" fill="#F300B0"/>
</svg>
