<svg width="25" height="25" viewBox="0 0 25 25" fill="none" xmlns="http://www.w3.org/2000/svg">
<path d="M24.66 21.2443L19.7915 16.5639C19.5717 16.3526 19.2739 16.2352 18.9613 16.2352H18.1654C19.5131 14.5781 20.314 12.4937 20.314 10.2262C20.314 4.83218 15.7678 0.461548 10.157 0.461548C4.54623 0.461548 0 4.83218 0 10.2262C0 15.6203 4.54623 19.9909 10.157 19.9909C12.5156 19.9909 14.6837 19.221 16.4074 17.9253V18.6905C16.4074 18.991 16.5295 19.2773 16.7493 19.4886L21.6178 24.169C22.0768 24.6103 22.8191 24.6103 23.2732 24.169L24.6551 22.8405C25.1141 22.3992 25.1141 21.6856 24.66 21.2443ZM10.157 16.2352C6.70459 16.2352 3.90654 13.55 3.90654 10.2262C3.90654 6.90717 6.69971 4.21719 10.157 4.21719C13.6094 4.21719 16.4074 6.90248 16.4074 10.2262C16.4074 13.5453 13.6143 16.2352 10.157 16.2352Z" fill="#CACACA"/>
</svg>
