<svg width="25" height="25" viewBox="0 0 25 25" fill="none" xmlns="http://www.w3.org/2000/svg">
<path d="M24.66 21.2442L19.7915 16.5637C19.5717 16.3525 19.2739 16.2351 18.9613 16.2351H18.1654C19.5131 14.5779 20.314 12.4936 20.314 10.2261C20.314 4.83206 15.7678 0.461426 10.157 0.461426C4.54623 0.461426 0 4.83206 0 10.2261C0 15.6201 4.54623 19.9908 10.157 19.9908C12.5156 19.9908 14.6837 19.2209 16.4074 17.9252V18.6904C16.4074 18.9908 16.5295 19.2772 16.7493 19.4884L21.6178 24.1689C22.0768 24.6102 22.8191 24.6102 23.2732 24.1689L24.6551 22.8404C25.1141 22.3991 25.1141 21.6855 24.66 21.2442ZM10.157 16.2351C6.70459 16.2351 3.90654 13.5498 3.90654 10.2261C3.90654 6.90705 6.69971 4.21707 10.157 4.21707C13.6094 4.21707 16.4074 6.90235 16.4074 10.2261C16.4074 13.5451 13.6143 16.2351 10.157 16.2351Z" fill="#CACACA"/>
</svg>
