<svg width="161" height="139" viewBox="0 0 161 139" fill="none" xmlns="http://www.w3.org/2000/svg">
<path d="M33.6621 57.2846L9.55239 37.1728C8.87148 39.087 8.51498 41.1177 8.4999 43.168C8.49251 46.3282 9.29081 49.4297 10.8074 52.133C12.324 54.8363 14.5005 57.0372 17.0985 58.4948C19.6966 59.9523 22.6162 60.6104 25.5376 60.397C28.459 60.1835 31.2697 59.1068 33.6621 57.2846ZM43.772 74.0885C40.7788 70.8701 36.7247 69.0652 32.4996 69.07H16.4998C12.2576 69.0743 8.1903 70.895 5.19062 74.1324C2.19094 77.3699 0.503971 81.7596 0.5 86.338V94.972C0.5 97.2619 1.34284 99.458 2.84312 101.077C4.34339 102.696 6.3782 103.606 8.4999 103.606H24.9772C25.738 97.4372 27.8365 91.5491 31.1022 86.4203C34.368 81.2914 38.7088 77.0664 43.772 74.0885ZM136.498 60.436C139.663 60.436 142.756 59.4233 145.387 57.5258C148.019 55.6284 150.069 52.9315 151.28 49.7762C152.491 46.6209 152.808 43.1489 152.191 39.7992C151.573 36.4495 150.05 33.3727 147.812 30.9577C145.574 28.5427 142.723 26.8981 139.62 26.2318C136.516 25.5655 133.299 25.9075 130.375 27.2145C127.452 28.5214 124.953 30.7347 123.195 33.5744C121.437 36.4141 120.499 39.7527 120.499 43.168C120.502 47.7465 122.189 52.1362 125.189 55.3736C128.189 58.6111 132.256 60.4317 136.498 60.436ZM125.638 95.8111C123.714 91.2413 120.784 87.2481 117.103 84.1785C113.423 81.1089 109.104 79.0558 104.521 78.1978L90.7489 66.7038C101.114 62.3058 108.499 51.6158 108.499 38.851C108.501 34.8819 107.778 30.9512 106.372 27.2838C104.966 23.6163 102.903 20.284 100.303 17.4774C97.7024 14.6708 94.6149 12.445 91.2167 10.9272C87.8186 9.40947 84.1766 8.62953 80.499 8.63201C66.2142 8.63201 54.5768 20.1881 52.8494 35.0952L11.8649 0.909976C11.4501 0.561669 10.9759 0.304977 10.4692 0.154569C9.96247 0.00416127 9.43328 -0.0370143 8.91183 0.0333953C8.39039 0.103805 7.88691 0.28442 7.43017 0.564918C6.97343 0.845417 6.57237 1.2203 6.24993 1.66815L1.34249 8.48631C0.691494 9.39014 0.399787 10.536 0.531526 11.672C0.663264 12.8079 1.20766 13.8408 2.04498 14.5436L149.131 137.233C149.545 137.581 150.02 137.839 150.527 137.989C151.034 138.14 151.563 138.181 152.085 138.111C152.607 138.04 153.111 137.86 153.568 137.579C154.024 137.298 154.426 136.923 154.748 136.475L159.658 129.656C160.309 128.753 160.601 127.607 160.469 126.471C160.337 125.335 159.793 124.302 158.956 123.599L125.638 95.8111ZM32.4996 108.789V116.557C32.4996 119.992 33.7639 123.286 36.0143 125.715C38.2647 128.144 41.3169 129.508 44.4995 129.508H116.499C117.562 129.493 118.619 129.323 119.641 129.003L58.4993 78.0089C43.9345 79.5468 32.4996 92.657 32.4996 108.789ZM144.498 69.07H128.498C124.273 69.0652 120.219 70.8701 117.226 74.0885C122.289 77.0636 126.629 81.2883 129.891 86.4181C133.154 91.5478 135.246 97.4373 135.998 103.606H152.498C154.62 103.606 156.655 102.696 158.155 101.077C159.655 99.458 160.498 97.2619 160.498 94.972V86.338C160.494 81.7596 158.807 77.3699 155.807 74.1324C152.808 70.895 148.74 69.0743 144.498 69.07Z" fill="#CACACA"/>
</svg>
