<svg width="201" height="175" viewBox="0 0 201 175" fill="none" xmlns="http://www.w3.org/2000/svg">
<path d="M56.7686 68.7411C49.8555 68.7411 44.2703 74.3263 44.2703 81.2395C44.2703 88.1526 49.8555 93.7378 56.7686 93.7378C63.6818 93.7378 69.267 88.1526 69.267 81.2395C69.267 74.3263 63.6818 68.7411 56.7686 68.7411ZM100.513 68.7411C93.5998 68.7411 88.0146 74.3263 88.0146 81.2395C88.0146 88.1526 93.5998 93.7378 100.513 93.7378C107.426 93.7378 113.011 88.1526 113.011 81.2395C113.011 74.3263 107.426 68.7411 100.513 68.7411ZM144.257 68.7411C137.344 68.7411 131.759 74.3263 131.759 81.2395C131.759 88.1526 137.344 93.7378 144.257 93.7378C151.17 93.7378 156.756 88.1526 156.756 81.2395C156.756 74.3263 151.17 68.7411 144.257 68.7411ZM100.513 0C45.2858 0 0.525922 36.3625 0.525922 81.2395C0.525922 99.8308 8.29835 116.86 21.1873 130.569C15.3677 145.958 3.25994 159.003 3.06466 159.159C0.486864 161.893 -0.21617 165.877 1.26801 169.314C2.7522 172.751 6.15019 174.977 9.89971 174.977C33.92 174.977 52.8629 164.94 64.2286 156.894C75.5162 160.448 87.7021 162.479 100.513 162.479C155.74 162.479 200.5 126.116 200.5 81.2395C200.5 36.3625 155.74 0 100.513 0ZM100.513 143.731C90.0846 143.731 79.7735 142.13 69.8919 139.005L61.0259 136.193L53.4097 141.583C47.8245 145.528 40.1692 149.941 30.9517 152.91C33.8029 148.184 36.5759 142.872 38.7241 137.209L42.8642 126.234L34.8184 117.719C27.749 110.181 19.2735 97.7217 19.2735 81.2395C19.2735 46.7908 55.7141 18.7476 100.513 18.7476C145.312 18.7476 181.752 46.7908 181.752 81.2395C181.752 115.688 145.312 143.731 100.513 143.731Z" fill="#CACACA"/>
</svg>
