<svg width="160" height="160" viewBox="0 0 160 160" fill="none" xmlns="http://www.w3.org/2000/svg">
<path d="M80 0C35.8065 0 0 35.8065 0 80C0 124.194 35.8065 160 80 160C124.194 160 160 124.194 160 80C160 35.8065 124.194 0 80 0ZM119.226 101C120.742 102.516 120.742 104.968 119.226 106.484L106.452 119.226C104.935 120.742 102.484 120.742 100.968 119.226L80 98.0645L59 119.226C57.4839 120.742 55.0323 120.742 53.5161 119.226L40.7742 106.452C39.2581 104.935 39.2581 102.484 40.7742 100.968L61.9355 80L40.7742 59C39.2581 57.4839 39.2581 55.0323 40.7742 53.5161L53.5484 40.7419C55.0645 39.2258 57.5161 39.2258 59.0323 40.7419L80 61.9355L101 40.7742C102.516 39.2581 104.968 39.2581 106.484 40.7742L119.258 53.5484C120.774 55.0645 120.774 57.5161 119.258 59.0323L98.0645 80L119.226 101Z" fill="#CACACA"/>
</svg>
