<svg width="160" height="139" viewBox="0 0 160 139" fill="none" xmlns="http://www.w3.org/2000/svg">
<path d="M33.1621 57.2846L9.05239 37.1728C8.37148 39.087 8.01498 41.1177 7.9999 43.168C7.99251 46.3282 8.79081 49.4297 10.3074 52.133C11.824 54.8363 14.0005 57.0372 16.5985 58.4948C19.1966 59.9523 22.1162 60.6104 25.0376 60.397C27.959 60.1835 30.7697 59.1068 33.1621 57.2846ZM43.272 74.0885C40.2788 70.8701 36.2247 69.0652 31.9996 69.07H15.9998C11.7576 69.0743 7.6903 70.895 4.69062 74.1324C1.69094 77.3699 0.00397147 81.7596 0 86.338V94.972C0 97.2619 0.842845 99.458 2.34312 101.077C3.84339 102.696 5.8782 103.606 7.9999 103.606H24.4772C25.238 97.4372 27.3365 91.5491 30.6022 86.4203C33.868 81.2914 38.2088 77.0664 43.272 74.0885ZM135.998 60.436C139.163 60.436 142.256 59.4233 144.887 57.5258C147.519 55.6284 149.569 52.9315 150.78 49.7762C151.991 46.6209 152.308 43.1489 151.691 39.7992C151.073 36.4495 149.55 33.3727 147.312 30.9577C145.074 28.5427 142.223 26.8981 139.12 26.2318C136.016 25.5655 132.799 25.9075 129.875 27.2145C126.952 28.5214 124.453 30.7347 122.695 33.5744C120.937 36.4141 119.999 39.7527 119.999 43.168C120.002 47.7465 121.689 52.1362 124.689 55.3736C127.689 58.6111 131.756 60.4317 135.998 60.436ZM125.138 95.8111C123.214 91.2413 120.284 87.2481 116.603 84.1785C112.923 81.1089 108.604 79.0558 104.021 78.1978L90.2489 66.7038C100.614 62.3058 107.999 51.6158 107.999 38.851C108.001 34.8819 107.278 30.9512 105.872 27.2838C104.466 23.6163 102.403 20.284 99.8029 17.4774C97.2024 14.6708 94.1149 12.445 90.7167 10.9272C87.3186 9.40947 83.6766 8.62953 79.999 8.63201C65.7142 8.63201 54.0768 20.1881 52.3494 35.0952L11.3649 0.909976C10.9501 0.561669 10.4759 0.304977 9.96916 0.154569C9.46247 0.00416127 8.93328 -0.0370143 8.41183 0.0333953C7.89039 0.103805 7.38691 0.28442 6.93017 0.564918C6.47343 0.845417 6.07237 1.2203 5.74993 1.66815L0.84249 8.48631C0.191494 9.39014 -0.100213 10.536 0.0315256 11.672C0.163264 12.8079 0.70766 13.8408 1.54498 14.5436L148.631 137.233C149.045 137.581 149.52 137.839 150.027 137.989C150.534 138.14 151.063 138.181 151.585 138.111C152.107 138.04 152.611 137.86 153.068 137.579C153.524 137.298 153.926 136.923 154.248 136.475L159.158 129.656C159.809 128.753 160.101 127.607 159.969 126.471C159.837 125.335 159.293 124.302 158.456 123.599L125.138 95.8111ZM31.9996 108.789V116.557C31.9996 119.992 33.2639 123.286 35.5143 125.715C37.7647 128.144 40.8169 129.508 43.9995 129.508H115.999C117.062 129.493 118.119 129.323 119.141 129.003L57.9993 78.0089C43.4345 79.5468 31.9996 92.657 31.9996 108.789ZM143.998 69.07H127.998C123.773 69.0652 119.719 70.8701 116.726 74.0885C121.789 77.0636 126.129 81.2883 129.391 86.4181C132.654 91.5478 134.746 97.4373 135.498 103.606H151.998C154.12 103.606 156.155 102.696 157.655 101.077C159.155 99.458 159.998 97.2619 159.998 94.972V86.338C159.994 81.7596 158.307 77.3699 155.307 74.1324C152.308 70.895 148.24 69.0743 143.998 69.07Z" fill="#CACACA"/>
</svg>
