<svg width="69" height="69" viewBox="0 0 69 69" fill="none" xmlns="http://www.w3.org/2000/svg">
<path d="M34.5 13.3548C27.127 13.3548 21.1452 19.3367 21.1452 26.7097C21.1452 34.0827 27.127 40.0645 34.5 40.0645C41.873 40.0645 47.8548 34.0827 47.8548 26.7097C47.8548 19.3367 41.873 13.3548 34.5 13.3548ZM34.5 33.3871C30.8135 33.3871 27.8226 30.3962 27.8226 26.7097C27.8226 23.0232 30.8135 20.0323 34.5 20.0323C38.1865 20.0323 41.1774 23.0232 41.1774 26.7097C41.1774 30.3962 38.1865 33.3871 34.5 33.3871ZM34.5 0C15.4415 0 0 15.4415 0 34.5C0 53.5585 15.4415 69 34.5 69C53.5585 69 69 53.5585 69 34.5C69 15.4415 53.5585 0 34.5 0ZM34.5 62.3226C27.5861 62.3226 21.2704 59.7768 16.4014 55.5895C18.4742 52.3899 22.0216 50.2198 26.0837 50.0946C28.9772 50.9849 31.7317 51.43 34.5 51.43C37.2683 51.43 40.0228 50.9988 42.9163 50.0946C46.9784 50.2337 50.5258 52.3899 52.5986 55.5895C47.7296 59.7768 41.4139 62.3226 34.5 62.3226ZM57.1337 50.6232C53.7393 46.255 48.4948 43.4032 42.5129 43.4032C41.094 43.4032 38.896 44.7387 34.5 44.7387C30.1179 44.7387 27.906 43.4032 26.4871 43.4032C20.5192 43.4032 15.2746 46.255 11.8663 50.6232C8.61109 46.0742 6.67742 40.5097 6.67742 34.5C6.67742 19.1558 19.1558 6.67742 34.5 6.67742C49.8442 6.67742 62.3226 19.1558 62.3226 34.5C62.3226 40.5097 60.3889 46.0742 57.1337 50.6232Z" fill="url(#paint0_linear_37_3530)"/>
<defs>
<linearGradient id="paint0_linear_37_3530" x1="0.5" y1="1.5" x2="62" y2="1.5" gradientUnits="userSpaceOnUse">
<stop stop-color="#9D00F1"/>
<stop offset="1" stop-color="#F400B0"/>
</linearGradient>
</defs>
</svg>
