<svg width="44" height="40" viewBox="0 0 44 40" fill="none" xmlns="http://www.w3.org/2000/svg">
<path d="M8.64 32.704C8.64 33.368 8.556 33.972 8.388 34.516C8.22 35.052 7.968 35.516 7.632 35.908C7.304 36.3 6.892 36.6 6.396 36.808C5.908 37.016 5.34 37.12 4.692 37.12C4.02 37.12 3.436 37.016 2.94 36.808C2.444 36.592 2.032 36.292 1.704 35.908C1.376 35.516 1.132 35.048 0.972 34.504C0.812 33.96 0.732 33.356 0.732 32.692C0.732 31.812 0.876 31.044 1.164 30.388C1.452 29.732 1.888 29.22 2.472 28.852C3.064 28.484 3.808 28.3 4.704 28.3C5.56 28.3 6.28 28.484 6.864 28.852C7.448 29.212 7.888 29.724 8.184 30.388C8.488 31.044 8.64 31.816 8.64 32.704ZM1.872 32.704C1.872 33.424 1.972 34.044 2.172 34.564C2.372 35.084 2.68 35.484 3.096 35.764C3.52 36.044 4.052 36.184 4.692 36.184C5.34 36.184 5.868 36.044 6.276 35.764C6.692 35.484 7 35.084 7.2 34.564C7.4 34.044 7.5 33.424 7.5 32.704C7.5 31.624 7.276 30.78 6.828 30.172C6.38 29.556 5.672 29.248 4.704 29.248C4.056 29.248 3.52 29.388 3.096 29.668C2.68 29.94 2.372 30.336 2.172 30.856C1.972 31.368 1.872 31.984 1.872 32.704ZM14.691 30.448C15.459 30.448 16.039 30.636 16.431 31.012C16.823 31.38 17.019 31.98 17.019 32.812V37H15.975V32.884C15.975 32.364 15.859 31.976 15.627 31.72C15.395 31.464 15.031 31.336 14.535 31.336C13.823 31.336 13.331 31.536 13.059 31.936C12.787 32.336 12.651 32.912 12.651 33.664V37H11.595V30.568H12.447L12.603 31.444H12.663C12.807 31.22 12.983 31.036 13.191 30.892C13.407 30.74 13.643 30.628 13.899 30.556C14.155 30.484 14.419 30.448 14.691 30.448ZM21.269 37H20.213V27.88H21.269V37ZM25.5627 30.568V37H24.5067V30.568H25.5627ZM25.0467 28.156C25.2067 28.156 25.3467 28.212 25.4667 28.324C25.5947 28.428 25.6587 28.596 25.6587 28.828C25.6587 29.052 25.5947 29.22 25.4667 29.332C25.3467 29.444 25.2067 29.5 25.0467 29.5C24.8707 29.5 24.7227 29.444 24.6027 29.332C24.4827 29.22 24.4227 29.052 24.4227 28.828C24.4227 28.596 24.4827 28.428 24.6027 28.324C24.7227 28.212 24.8707 28.156 25.0467 28.156ZM31.8965 30.448C32.6645 30.448 33.2445 30.636 33.6365 31.012C34.0285 31.38 34.2245 31.98 34.2245 32.812V37H33.1805V32.884C33.1805 32.364 33.0645 31.976 32.8325 31.72C32.6005 31.464 32.2365 31.336 31.7405 31.336C31.0285 31.336 30.5365 31.536 30.2645 31.936C29.9925 32.336 29.8565 32.912 29.8565 33.664V37H28.8005V30.568H29.6525L29.8085 31.444H29.8685C30.0125 31.22 30.1885 31.036 30.3965 30.892C30.6125 30.74 30.8485 30.628 31.1045 30.556C31.3605 30.484 31.6245 30.448 31.8965 30.448ZM39.9024 30.448C40.4544 30.448 40.9264 30.568 41.3184 30.808C41.7184 31.048 42.0224 31.388 42.2304 31.828C42.4464 32.26 42.5544 32.768 42.5544 33.352V33.988H38.1504C38.1664 34.716 38.3504 35.272 38.7024 35.656C39.0624 36.032 39.5624 36.22 40.2024 36.22C40.6104 36.22 40.9704 36.184 41.2824 36.112C41.6024 36.032 41.9304 35.92 42.2664 35.776V36.7C41.9384 36.844 41.6144 36.948 41.2944 37.012C40.9744 37.084 40.5944 37.12 40.1544 37.12C39.5464 37.12 39.0064 36.996 38.5344 36.748C38.0704 36.5 37.7064 36.132 37.4424 35.644C37.1864 35.148 37.0584 34.544 37.0584 33.832C37.0584 33.128 37.1744 32.524 37.4064 32.02C37.6464 31.516 37.9784 31.128 38.4024 30.856C38.8344 30.584 39.3344 30.448 39.9024 30.448ZM39.8904 31.312C39.3864 31.312 38.9864 31.476 38.6904 31.804C38.4024 32.124 38.2304 32.572 38.1744 33.148H41.4504C41.4504 32.78 41.3944 32.46 41.2824 32.188C41.1704 31.916 40.9984 31.704 40.7664 31.552C40.5424 31.392 40.2504 31.312 39.8904 31.312Z" fill="#FF3427"/>
<circle cx="23" cy="10" r="10" fill="#FF3427"/>
</svg>
