<svg width="200" height="175" viewBox="0 0 200 175" fill="none" xmlns="http://www.w3.org/2000/svg">
<path d="M56.2686 68.7411C49.3555 68.7411 43.7703 74.3263 43.7703 81.2395C43.7703 88.1526 49.3555 93.7378 56.2686 93.7378C63.1818 93.7378 68.767 88.1526 68.767 81.2395C68.767 74.3263 63.1818 68.7411 56.2686 68.7411ZM100.013 68.7411C93.0998 68.7411 87.5146 74.3263 87.5146 81.2395C87.5146 88.1526 93.0998 93.7378 100.013 93.7378C106.926 93.7378 112.511 88.1526 112.511 81.2395C112.511 74.3263 106.926 68.7411 100.013 68.7411ZM143.757 68.7411C136.844 68.7411 131.259 74.3263 131.259 81.2395C131.259 88.1526 136.844 93.7378 143.757 93.7378C150.67 93.7378 156.256 88.1526 156.256 81.2395C156.256 74.3263 150.67 68.7411 143.757 68.7411ZM100.013 0C44.7858 0 0.0259217 36.3625 0.0259217 81.2395C0.0259217 99.8308 7.79835 116.86 20.6873 130.569C14.8677 145.958 2.75994 159.003 2.56466 159.159C-0.0131357 161.893 -0.71617 165.877 0.768013 169.314C2.2522 172.751 5.65019 174.977 9.39971 174.977C33.42 174.977 52.3629 164.94 63.7286 156.894C75.0162 160.448 87.2021 162.479 100.013 162.479C155.24 162.479 200 126.116 200 81.2395C200 36.3625 155.24 0 100.013 0ZM100.013 143.731C89.5846 143.731 79.2735 142.13 69.3919 139.005L60.5259 136.193L52.9097 141.583C47.3245 145.528 39.6692 149.941 30.4517 152.91C33.3029 148.184 36.0759 142.872 38.2241 137.209L42.3642 126.234L34.3184 117.719C27.249 110.181 18.7735 97.7217 18.7735 81.2395C18.7735 46.7908 55.2141 18.7476 100.013 18.7476C144.812 18.7476 181.252 46.7908 181.252 81.2395C181.252 115.688 144.812 143.731 100.013 143.731Z" fill="#CACACA"/>
</svg>
